<?xml version="1.0" standalone="no"?>
<!DOCTYPE svg PUBLIC "-//W3C//DTD SVG 20010904//EN"
 "http://www.w3.org/TR/2001/REC-SVG-20010904/DTD/svg10.dtd">
<svg version="1.0" xmlns="http://www.w3.org/2000/svg"
 width="200.000000pt" height="200.000000pt" viewBox="0 0 200.000000 200.000000"
 preserveAspectRatio="xMidYMid meet">
<metadata>
Created by potrace 1.14, written by Peter Selinger 2001-2017
</metadata>
<g transform="translate(0.000000,200.000000) scale(0.100000,-0.100000)"
fill="#000000" stroke="none">
<path d="M1001 1931 c-91 -88 -115 -139 -115 -241 -1 -137 47 -196 324 -404
269 -201 422 -362 510 -534 24 -48 85 -207 79 -207 0 0 2 -16 6 -35 3 -19 8
-44 10 -55 2 -11 4 -22 4 -25 3 -12 86 142 111 205 81 205 89 470 20 675 -84
249 -237 435 -466 566 -78 44 -231 99 -302 109 -20 3 -53 8 -73 11 -33 5 -40
1 -108 -65z"/>
<path d="M715 1740 c-3 -5 -1 -10 4 -10 6 0 11 5 11 10 0 6 -2 10 -4 10 -3 0
-8 -4 -11 -10z"/>
<path d="M156 1537 c-10 -18 -36 -66 -57 -109 -113 -223 -127 -527 -37 -773
89 -245 283 -455 521 -565 76 -36 213 -76 288 -84 l55 -7 72 68 c91 87 117
140 116 243 -1 137 -55 204 -342 417 -173 129 -355 301 -421 400 -22 34 -57
93 -76 131 -34 69 -85 226 -85 266 0 41 -15 46 -34 13z"/>
<path d="M380 1526 c0 -2 8 -10 18 -17 15 -13 16 -12 3 4 -13 16 -21 21 -21
13z"/>
<path d="M1435 560 c3 -5 8 -10 11 -10 2 0 4 5 4 10 0 6 -5 10 -11 10 -5 0 -7
-4 -4 -10z"/>
</g>
</svg>
