
        <svg xmlns="http://www.w3.org/2000/svg" xmlns:xlink="http://www.w3.org/1999/xlink" version="1.1" width="3171.4285714285716" height="1920.4091103794553" viewBox="0 0 3171.4285714285716 1920.4091103794553">
			
			<g transform="scale(8.571428571428571) translate(10, 10)">
				<defs id="SvgjsDefs1026"/><g id="SvgjsG1027" featureKey="nameFeature-0" transform="matrix(5.415273850532719,0,0,5.415273850532719,0.000020657630350237728,-64.76664963690969)" fill="#000"><path d="M23.48 27.560000000000002 c-15.88 0 -16.12 -0.04 -16.32 -0.04 l-0.08 0 c-4 -0.32 -7.08 -3.72 -7.08 -7.76 c0 -4.32 3.48 -7.8 7.8 -7.8 l16.8 0 c3.36 0 6.08 2.72 6.08 6.12 l0 3.24 l-22.76 0 l-0.04 0 l-0.04 0 c-0.92 -0.04 -1.52 -0.72 -1.52 -1.56 s0.64 -1.52 1.48 -1.56 l19.76 0 l0 -0.08 c0 -1.72 -1.32 -3.04 -3.04 -3.04 l-16.72 0 c-2.56 0 -4.68 2.08 -4.68 4.68 c0 2.4 1.8 4.32 4.08 4.64 c15.96 0 16.12 0.04 16.4 0.04 c4 0.32 7.08 3.76 7.08 7.76 c0 4.32 -3.48 7.8 -7.76 7.8 l-16.84 0 c-3.36 0 -6.08 -2.72 -6.08 -6.08 l0 -3.28 l22.92 0 c1.96 0.12 1.96 3 0 3.12 l-19.8 0 l0 0.08 c0 1.72 1.32 3.04 3.04 3.04 l16.76 0 c2.52 0 4.68 -2 4.68 -4.68 c0 -2.4 -1.8 -4.32 -4.12 -4.64 z M49.512 30.32 l2.28 -2.12 l12.84 11.8 l-13.8 0 l-10.48 -9.6 l16.24 -15.32 l-4.52 0 l-11.72 11.32 l0 -11.32 l-3.12 0 l0 21.8 l5.52 0 l3.44 3.12 l-12.08 0 l0 -28.04 l9.36 0 l0 6.88 l7.36 -6.88 l13.64 0 l-19.56 18.4 l7.12 6.52 l4.6 0 z"/></g><g id="SvgjsG1028" featureKey="sloganFeature-0" transform="matrix(2.2147704874127356,0,0,2.2147704874127356,12.120800056099228,159.08789033952706)" fill="#000"><path d="M12.36 17.08 l0.8 0.84 c0.14 0.14 0.13 0.29 -0.01 0.42 c-1.28 1.22 -2.85 1.92 -4.77 1.92 c-3.98 0 -7.08 -3.2 -7.08 -7.2 c0 -4.03 3.1 -7.22 7.08 -7.22 c1.92 0 3.49 0.73 4.77 1.91 c0.14 0.13 0.15 0.28 0.01 0.42 l-0.8 0.85 c-0.14 0.14 -0.28 0.12 -0.42 0 c-0.99 -0.84 -2.11 -1.36 -3.56 -1.36 c-2.87 0 -5.17 2.31 -5.17 5.4 c0 3.06 2.3 5.37 5.17 5.37 c1.45 0 2.57 -0.51 3.56 -1.36 c0.14 -0.12 0.28 -0.13 0.42 0.01 z M23.7605 20.26 c-3.96 0 -7.17 -3.2 -7.17 -7.2 c0 -4.02 3.21 -7.22 7.17 -7.22 c3.95 0 7.16 3.2 7.16 7.22 c0 4 -3.21 7.2 -7.16 7.2 z M23.7605 18.49 c2.97 0 5.32 -2.4 5.32 -5.43 c0 -3.05 -2.35 -5.45 -5.32 -5.45 c-2.98 0 -5.33 2.4 -5.33 5.45 c0 3.03 2.35 5.43 5.33 5.43 z M45.061 6 c0.18 0 0.3 0.12 0.3 0.3 l0 13.4 c0 0.16 -0.1 0.28 -0.25 0.3 l-1.64 0 c-0.16 0 -0.28 -0.06 -0.36 -0.2 l-6.44 -11.04 l0 10.94 c0 0.18 -0.12 0.3 -0.3 0.3 l-1.27 0 c-0.18 0 -0.3 -0.12 -0.3 -0.3 l0 -13.4 c0 -0.17 0.1 -0.28 0.26 -0.3 l1.63 0 c0.16 0 0.28 0.06 0.36 0.2 l6.44 11.03 l0 -10.93 c0 -0.18 0.12 -0.3 0.3 -0.3 l1.27 0 z M54.0415 12.01 c2.72 0.56 5.21 1.37 5.21 4.33 c0 2.4 -1.61 3.96 -5.15 3.96 c-3.03 0 -4.85 -1.12 -5.06 -3.42 c-0.02 -0.2 0.1 -0.36 0.28 -0.36 l1.22 0 c0.18 0 0.28 0.14 0.3 0.3 c0.17 1.1 1.33 1.78 3.26 1.78 c2.13 0 3.31 -0.72 3.31 -2.24 c0 -1.77 -1.23 -2.15 -3.37 -2.65 c-2.54 -0.58 -4.68 -1.45 -4.68 -4.16 c0 -2.26 1.53 -3.72 4.62 -3.72 c2.86 0 4.62 1.09 4.85 3.35 c0.02 0.2 -0.1 0.3 -0.28 0.3 l-1.13 0 c-0.18 0 -0.28 -0.08 -0.3 -0.24 c-0.15 -1.02 -1.26 -1.74 -3.13 -1.74 c-1.72 0 -2.83 0.7 -2.83 2.05 c0 1.36 0.91 2.05 2.88 2.46 z M73.612 6 c0.18 0 0.3 0.12 0.3 0.3 l0 8.04 c0 3.98 -2.15 5.95 -5.67 5.95 c-3.51 0 -5.66 -1.97 -5.66 -5.95 l0 -8.04 c0 -0.18 0.12 -0.3 0.3 -0.3 l1.27 0 c0.18 0 0.3 0.12 0.3 0.3 l0 8.04 c0 2.83 1.5 4.18 3.79 4.18 c2.3 0 3.8 -1.35 3.8 -4.18 l0 -8.04 c0 -0.18 0.12 -0.3 0.3 -0.3 l1.27 0 z M86.5925 18.3 c0.18 0 0.3 0.12 0.3 0.3 l0 1.1 c0 0.18 -0.12 0.3 -0.3 0.3 l-8.45 0 c-0.18 0 -0.3 -0.12 -0.3 -0.3 l0 -13.4 c0 -0.18 0.12 -0.3 0.3 -0.3 l1.27 0 c0.18 0 0.3 0.12 0.3 0.3 l0 12 l6.88 0 z M100.273 6 c0.18 0 0.3 0.12 0.3 0.3 l0 1.1 c0 0.18 -0.12 0.3 -0.3 0.3 l-4.19 0 l0 12 c0 0.18 -0.12 0.3 -0.3 0.3 l-1.27 0 c-0.18 0 -0.3 -0.12 -0.3 -0.3 l0 -12 l-4.19 0 c-0.18 0 -0.3 -0.12 -0.3 -0.3 l0 -1.1 c0 -0.18 0.12 -0.3 0.3 -0.3 l10.25 0 z M113.50349999999999 7.699999999999999 l-3.74 0 l0 10.6 l3.74 0 c0.18 0 0.3 0.12 0.3 0.3 l0 1.1 c0 0.18 -0.12 0.3 -0.3 0.3 l-9.35 0 c-0.18 0 -0.3 -0.12 -0.3 -0.3 l0 -1.1 c0 -0.18 0.12 -0.3 0.3 -0.3 l3.74 0 l0 -10.6 l-3.74 0 c-0.18 0 -0.3 -0.12 -0.3 -0.3 l0 -1.1 c0 -0.18 0.12 -0.3 0.3 -0.3 l9.35 0 c0.18 0 0.3 0.12 0.3 0.3 l0 1.1 c0 0.18 -0.12 0.3 -0.3 0.3 z M128.094 6 c0.18 0 0.3 0.12 0.3 0.3 l0 13.4 c0 0.16 -0.1 0.28 -0.25 0.3 l-1.64 0 c-0.16 0 -0.28 -0.06 -0.36 -0.2 l-6.44 -11.04 l0 10.94 c0 0.18 -0.12 0.3 -0.3 0.3 l-1.27 0 c-0.18 0 -0.3 -0.12 -0.3 -0.3 l0 -13.4 c0 -0.17 0.1 -0.28 0.26 -0.3 l1.63 0 c0.16 0 0.28 0.06 0.36 0.2 l6.44 11.03 l0 -10.93 c0 -0.18 0.12 -0.3 0.3 -0.3 l1.27 0 z M145.48449999999997 12.620000000000001 c0.18 0 0.3 0.12 0.3 0.3 l0 0.79 c0 3.69 -2.42 6.55 -6.4 6.55 c-4.03 0 -7.11 -3.22 -7.11 -7.23 c0 -4 3.1 -7.19 7.08 -7.19 c1.92 0 3.49 0.73 4.77 1.91 c0.14 0.13 0.15 0.28 0.01 0.42 l-0.8 0.85 c-0.14 0.14 -0.28 0.12 -0.42 0 c-0.99 -0.84 -2.11 -1.36 -3.56 -1.36 c-2.87 0 -5.17 2.31 -5.17 5.37 c0 3.07 2.25 5.4 5.2 5.4 c2.68 0 4.52 -1.73 4.6 -4.14 l-4.41 0 c-0.18 0 -0.3 -0.12 -0.3 -0.3 l0 -1.07 c0 -0.18 0.12 -0.3 0.3 -0.3 l5.91 0 z"/></g>
			</g>
		</svg>
	